<?xml version="1.0" encoding="UTF-8"?>
<svg id="Ebene_1" xmlns="http://www.w3.org/2000/svg" version="1.1" viewBox="0 0 50 50">
  <!-- Generator: Adobe Illustrator 29.8.0, SVG Export Plug-In . SVG Version: 2.1.1 Build 160)  -->
  <defs>
    <style>
      .st0, .st1 {
        fill: #1eb1b1;
      }

      .st1 {
        fill-rule: evenodd;
      }
    </style>
  </defs>
  <path class="st0" d="M12.66,5.22l2.87-1.17c.71-.29,1.51-.22,2.16.19l11.37,7.14s0,0,.01,0l7.02-2.24c1.73-.55,3.62-.07,4.87,1.23.45.47.91.92.85,1.63-.14,1.74-1.25,3.26-2.87,3.92l-22.99,9.34c-.92.38-1.98.13-2.66-.6l-4.93-5.43c-.37-.41-.22-1.06.29-1.27l2.47-1c.74-.3,1.57-.21,2.23.24l1.3.89s.01,0,.02,0l6.28-3.4s.01-.02,0-.03L12.41,6.53c-.42-.4-.29-1.09.25-1.31Z"/>
  <path class="st1" d="M14.33,34.39h5.96c.97,0,1.77.79,1.77,1.77v1.77h-7.73v-3.53h0ZM10.26,50.01h1.69c.49,0,.89-.4.89-.89v-2.66h-3.46v2.66c0,.49.4.89.89.89h0ZM39.11,50.01h1.69c.49,0,.89-.4.89-.89v-2.66h-3.46v2.66c0,.49.4.89.89.89h0ZM8.97,39.05h.4v-10.77c0-.49.4-.89.89-.89h1.69c.49,0,.89.4.89.89v10.77h25.38v-5.08c0-.49.4-.89.89-.89h1.69c.49,0,.89.4.89.89v5.08h.63c.44,0,.8.36.8.8v4.55c0,.44-.36.8-.8.8H8.97c-.44,0-.8-.36-.8-.8v-4.55c0-.44.36-.8.8-.8h0Z"/>
</svg>